{
  "accessors": [
    {
      "bufferView": 2,
      "componentType": 5126,
      "count": 1221,
      "max": [
        27.893714904785156,
        27.893709182739258,
        73.78850555419922
      ],
      "min": [
        -27.893712997436523,
        -27.979991912841797,
        18.412891387939453
      ],
      "type": "VEC3",
      "byteOffset": 0
    },
    {
      "bufferView": 2,
      "byteOffset": 14652,
      "componentType": 5126,
      "count": 1221,
      "max": [
        0.9999998807907104,
        0.9775053858757019,
        1
      ],
      "min": [
        -0.9999998807907104,
        -0.9956194758415222,
        -0.9963021278381348
      ],
      "type": "VEC3"
    },
    {
      "bufferView": 3,
      "componentType": 5126,
      "count": 1221,
      "max": [
        1,
        0.9998849034309387,
        0.9916697144508362,
        1
      ],
      "min": [
        -1,
        -1,
        -0.9996911287307739,
        1
      ],
      "type": "VEC4",
      "byteOffset": 0
    },
    {
      "bufferView": 1,
      "componentType": 5126,
      "count": 1221,
      "max": [
        0.9880890250205994,
        0.967860996723175
      ],
      "min": [
        0.011605000123381615,
        0.08001899719238281
      ],
      "type": "VEC2",
      "byteOffset": 0
    },
    {
      "bufferView": 0,
      "componentType": 5125,
      "count": 3288,
      "type": "SCALAR",
      "byteOffset": 0
    },
    {
      "bufferView": 2,
      "byteOffset": 29304,
      "componentType": 5126,
      "count": 3783,
      "max": [
        47.62718963623047,
        47.6271858215332,
        73.74687194824219
      ],
      "min": [
        -47.62718963623047,
        -47.62718963623047,
        -78.37089538574219
      ],
      "type": "VEC3"
    },
    {
      "bufferView": 2,
      "byteOffset": 74700,
      "componentType": 5126,
      "count": 3783,
      "max": [
        1,
        1,
        1
      ],
      "min": [
        -1,
        -1,
        -1
      ],
      "type": "VEC3"
    },
    {
      "bufferView": 3,
      "byteOffset": 19536,
      "componentType": 5126,
      "count": 3783,
      "max": [
        1,
        1,
        0.9921157956123352,
        1
      ],
      "min": [
        -1,
        -1,
        -0.9923195838928223,
        1
      ],
      "type": "VEC4"
    },
    {
      "bufferView": 1,
      "byteOffset": 9768,
      "componentType": 5126,
      "count": 3783,
      "max": [
        0.9879189729690552,
        0.9666370153427124
      ],
      "min": [
        0.010292000137269497,
        0.011579999700188637
      ],
      "type": "VEC2"
    },
    {
      "bufferView": 0,
      "byteOffset": 13152,
      "componentType": 5125,
      "count": 18306,
      "type": "SCALAR"
    }
  ],
  "asset": {
    "extras": {
      "author": "Willy Decarpentrie (https://sketchfab.com/skudgee)",
      "license": "CC-BY-4.0 (http://creativecommons.org/licenses/by/4.0/)",
      "source": "https://sketchfab.com/3d-models/bb8-6aff787c459a4e00a26ed11ac8f148a1",
      "title": "BB8"
    },
    "generator": "Sketchfab-12.68.0",
    "version": "2.0"
  },
  "bufferViews": [
    {
      "buffer": 0,
      "byteLength": 86376,
      "name": "floatBufferViews",
      "target": 34963,
      "byteOffset": 0
    },
    {
      "buffer": 0,
      "byteLength": 40032,
      "byteOffset": 86376,
      "byteStride": 8,
      "name": "floatBufferViews",
      "target": 34962
    },
    {
      "buffer": 0,
      "byteLength": 120096,
      "byteOffset": 126408,
      "byteStride": 12,
      "name": "floatBufferViews",
      "target": 34962
    },
    {
      "buffer": 0,
      "byteLength": 80064,
      "byteOffset": 246504,
      "byteStride": 16,
      "name": "floatBufferViews",
      "target": 34962
    },
    {
      "buffer": 0,
      "byteOffset": 326568,
      "byteLength": 727041
    },
    {
      "buffer": 0,
      "byteOffset": 1053616,
      "byteLength": 1069008
    },
    {
      "buffer": 0,
      "byteOffset": 2122624,
      "byteLength": 18480
    },
    {
      "buffer": 0,
      "byteOffset": 2141104,
      "byteLength": 989804
    }
  ],
  "buffers": [
    {
      "name": "bb8",
      "byteLength": 3130912,
      "uri": "data:application/octet-stream;base64,"
    }
  ],
  "extensionsRequired": [
    "KHR_materials_pbrSpecularGlossiness"
  ],
  "extensionsUsed": [
    "KHR_materials_pbrSpecularGlossiness"
  ],
  "images": [
    {
      "name": "Standard__1_diffuse",
      "bufferView": 4,
      "mimeType": "image/jpeg"
    },
    {
      "name": "Standard__1_specularGlossiness",
      "bufferView": 5,
      "mimeType": "image/png"
    },
    {
      "name": "Standard__1_emissive",
      "bufferView": 6,
      "mimeType": "image/jpeg"
    },
    {
      "name": "Standard__1_normal",
      "bufferView": 7,
      "mimeType": "image/png"
    }
  ],
  "materials": [
    {
      "doubleSided": true,
      "emissiveFactor": [
        1,
        1,
        1
      ],
      "emissiveTexture": {
        "index": 2,
        "texCoord": 0
      },
      "extensions": {
        "KHR_materials_pbrSpecularGlossiness": {
          "diffuseFactor": [
            1,
            1,
            1,
            1
          ],
          "diffuseTexture": {
            "index": 0
          },
          "glossinessFactor": 1,
          "specularFactor": [
            1,
            1,
            1
          ],
          "specularGlossinessTexture": {
            "index": 1,
            "texCoord": 0
          }
        }
      },
      "name": "Standard__1",
      "normalTexture": {
        "index": 3,
        "texCoord": 0
      },
      "alphaMode": "OPAQUE"
    }
  ],
  "meshes": [
    {
      "name": "Object_0",
      "primitives": [
        {
          "attributes": {
            "NORMAL": 1,
            "POSITION": 0,
            "TANGENT": 2,
            "TEXCOORD_0": 3
          },
          "indices": 4,
          "material": 0,
          "mode": 4
        }
      ]
    },
    {
      "name": "Object_1",
      "primitives": [
        {
          "attributes": {
            "NORMAL": 6,
            "POSITION": 5,
            "TANGENT": 7,
            "TEXCOORD_0": 8
          },
          "indices": 9,
          "material": 0,
          "mode": 4
        }
      ]
    }
  ],
  "nodes": [
    {
      "children": [
        1
      ],
      "matrix": [
        1,
        0,
        0,
        0,
        0,
        2.220446049250313e-16,
        -1,
        0,
        0,
        1,
        2.220446049250313e-16,
        0,
        0,
        0,
        0,
        1
      ],
      "name": "Sketchfab_model"
    },
    {
      "children": [
        2,
        3
      ],
      "name": "BB8.obj.cleaner.materialmerger.gles"
    },
    {
      "mesh": 0,
      "name": "Object_2"
    },
    {
      "mesh": 1,
      "name": "Object_3"
    }
  ],
  "samplers": [
    {
      "magFilter": 9729,
      "minFilter": 9987,
      "wrapS": 10497,
      "wrapT": 10497
    }
  ],
  "scene": 0,
  "scenes": [
    {
      "name": "Sketchfab_Scene",
      "nodes": [
        0
      ]
    }
  ],
  "textures": [
    {
      "sampler": 0,
      "source": 0
    },
    {
      "sampler": 0,
      "source": 1
    },
    {
      "sampler": 0,
      "source": 2
    },
    {
      "sampler": 0,
      "source": 3
    }
  ]
}
